<svg xmlns="http://www.w3.org/2000/svg" xmlns:xlink="http://www.w3.org/1999/xlink" width="500" zoomAndPan="magnify" viewBox="0 0 375 374.999991" height="500" preserveAspectRatio="xMidYMid meet" version="1.2"><defs><clipPath id="a6935de2af"><path d="M 118.386719 77.003906 L 256.386719 77.003906 L 256.386719 164 L 118.386719 164 Z M 118.386719 77.003906 "/></clipPath><clipPath id="2a502aa647"><path d="M 139 150 L 232 150 L 232 204.503906 L 139 204.503906 Z M 139 150 "/></clipPath><clipPath id="e021f7e421"><path d="M 249 163 L 256.386719 163 L 256.386719 172 L 249 172 Z M 249 163 "/></clipPath></defs><g id="b45c6d7fa8"><g clip-rule="nonzero" clip-path="url(#a6935de2af)"><path style=" stroke:none;fill-rule:nonzero;fill:#20164d;fill-opacity:1;" d="M 185.386719 163.683594 C 183.949219 163.683594 182.613281 163.3125 181.378906 162.570312 L 122.390625 127.175781 C 121.796875 126.824219 121.261719 126.402344 120.78125 125.90625 C 120.300781 125.410156 119.894531 124.859375 119.5625 124.253906 C 119.230469 123.652344 118.984375 123.015625 118.824219 122.34375 C 118.660156 121.675781 118.589844 120.996094 118.609375 120.304688 C 118.640625 119.625 118.757812 118.960938 118.957031 118.308594 C 119.15625 117.65625 119.433594 117.039062 119.789062 116.457031 C 120.144531 115.878906 120.566406 115.347656 121.050781 114.875 C 121.539062 114.398438 122.078125 113.988281 122.667969 113.648438 L 181.378906 78.425781 C 181.984375 78.0625 182.625 77.785156 183.308594 77.59375 C 183.988281 77.40625 184.679688 77.3125 185.386719 77.3125 C 186.09375 77.3125 186.785156 77.40625 187.464844 77.597656 C 188.148438 77.785156 188.789062 78.0625 189.394531 78.425781 L 252.484375 116.277344 C 253.0625 116.625 253.582031 117.042969 254.050781 117.523438 C 254.519531 118.003906 254.917969 118.539062 255.25 119.125 C 255.582031 119.707031 255.832031 120.324219 256.003906 120.976562 C 256.175781 121.625 256.265625 122.285156 256.265625 122.957031 L 256.265625 155.476562 C 256.265625 155.933594 256.179688 156.371094 256.003906 156.792969 C 255.828125 157.214844 255.582031 157.585938 255.257812 157.910156 C 254.9375 158.230469 254.5625 158.480469 254.140625 158.65625 C 253.71875 158.832031 253.28125 158.917969 252.824219 158.917969 C 252.367188 158.917969 251.929688 158.832031 251.507812 158.65625 C 251.085938 158.480469 250.710938 158.230469 250.390625 157.910156 C 250.066406 157.585938 249.820312 157.214844 249.644531 156.792969 C 249.46875 156.371094 249.382812 155.933594 249.382812 155.476562 L 249.382812 122.957031 C 249.378906 122.617188 249.234375 122.359375 248.941406 122.183594 L 185.851562 84.328125 C 185.542969 84.140625 185.230469 84.140625 184.921875 84.328125 L 125.929688 119.722656 C 125.796875 119.804688 125.6875 119.914062 125.609375 120.050781 C 125.53125 120.191406 125.492188 120.339844 125.492188 120.496094 C 125.492188 120.65625 125.53125 120.804688 125.609375 120.945312 C 125.6875 121.082031 125.796875 121.191406 125.933594 121.273438 L 184.921875 156.667969 C 185.230469 156.851562 185.542969 156.851562 185.851562 156.667969 L 235.515625 126.78125 C 235.90625 126.546875 236.328125 126.394531 236.78125 126.328125 C 237.230469 126.261719 237.679688 126.28125 238.121094 126.394531 C 238.5625 126.503906 238.96875 126.695312 239.335938 126.96875 C 239.703125 127.238281 240.003906 127.570312 240.238281 127.960938 C 240.472656 128.355469 240.625 128.773438 240.691406 129.226562 C 240.757812 129.679688 240.738281 130.125 240.625 130.566406 C 240.515625 131.011719 240.324219 131.414062 240.050781 131.78125 C 239.78125 132.148438 239.449219 132.449219 239.058594 132.683594 L 189.394531 162.570312 C 188.160156 163.3125 186.824219 163.683594 185.386719 163.683594 Z M 185.386719 163.683594 "/></g><g clip-rule="nonzero" clip-path="url(#2a502aa647)"><path style=" stroke:none;fill-rule:nonzero;fill:#20164d;fill-opacity:1;" d="M 185.386719 204.128906 C 182.34375 204.128906 179.519531 203.34375 176.914062 201.777344 L 147.019531 183.832031 C 145.800781 183.097656 144.699219 182.21875 143.710938 181.203125 C 142.71875 180.183594 141.875 179.054688 141.175781 177.820312 C 140.476562 176.585938 139.945312 175.28125 139.582031 173.90625 C 139.21875 172.535156 139.03125 171.136719 139.027344 169.71875 L 139.027344 153.554688 C 139.027344 153.097656 139.117188 152.65625 139.289062 152.234375 C 139.464844 151.816406 139.714844 151.441406 140.035156 151.121094 C 140.359375 150.796875 140.730469 150.546875 141.152344 150.375 C 141.574219 150.199219 142.015625 150.109375 142.472656 150.109375 C 142.925781 150.109375 143.367188 150.199219 143.789062 150.375 C 144.210938 150.546875 144.582031 150.796875 144.90625 151.121094 C 145.226562 151.441406 145.476562 151.816406 145.652344 152.234375 C 145.828125 152.65625 145.914062 153.097656 145.914062 153.554688 L 145.914062 169.714844 C 145.914062 170.542969 146.019531 171.355469 146.230469 172.15625 C 146.441406 172.953125 146.75 173.714844 147.15625 174.433594 C 147.5625 175.152344 148.054688 175.808594 148.632812 176.402344 C 149.210938 176.992188 149.851562 177.503906 150.5625 177.925781 L 180.457031 195.875 C 181.203125 196.320312 181.992188 196.660156 182.828125 196.890625 C 183.664062 197.125 184.519531 197.238281 185.386719 197.238281 C 186.253906 197.238281 187.105469 197.125 187.941406 196.890625 C 188.78125 196.660156 189.570312 196.320312 190.3125 195.875 L 220.210938 177.929688 C 220.917969 177.503906 221.5625 176.992188 222.140625 176.402344 C 222.714844 175.808594 223.207031 175.152344 223.617188 174.433594 C 224.023438 173.714844 224.332031 172.957031 224.542969 172.15625 C 224.753906 171.355469 224.859375 170.542969 224.859375 169.71875 L 224.859375 153.554688 C 224.859375 153.097656 224.945312 152.65625 225.121094 152.234375 C 225.296875 151.816406 225.542969 151.441406 225.867188 151.121094 C 226.191406 150.796875 226.5625 150.546875 226.984375 150.375 C 227.40625 150.199219 227.84375 150.109375 228.300781 150.109375 C 228.757812 150.109375 229.195312 150.199219 229.617188 150.375 C 230.039062 150.546875 230.414062 150.796875 230.734375 151.121094 C 231.058594 151.441406 231.304688 151.816406 231.480469 152.234375 C 231.65625 152.65625 231.742188 153.097656 231.742188 153.554688 L 231.742188 169.71875 C 231.738281 171.136719 231.554688 172.535156 231.191406 173.90625 C 230.828125 175.28125 230.296875 176.585938 229.597656 177.820312 C 228.898438 179.054688 228.054688 180.183594 227.0625 181.203125 C 226.074219 182.21875 224.972656 183.097656 223.753906 183.832031 L 193.859375 201.777344 C 191.253906 203.34375 188.429688 204.128906 185.386719 204.128906 Z M 185.386719 204.128906 "/></g><g clip-rule="nonzero" clip-path="url(#e021f7e421)"><path style=" stroke:none;fill-rule:nonzero;fill:#20164d;fill-opacity:1;" d="M 256.527344 167.488281 C 256.527344 167.976562 256.433594 168.445312 256.246094 168.898438 C 256.058594 169.351562 255.789062 169.75 255.445312 170.097656 C 255.097656 170.441406 254.699219 170.710938 254.246094 170.894531 C 253.796875 171.082031 253.324219 171.175781 252.835938 171.175781 C 252.347656 171.175781 251.875 171.082031 251.421875 170.894531 C 250.96875 170.710938 250.570312 170.441406 250.226562 170.097656 C 249.878906 169.75 249.613281 169.351562 249.425781 168.898438 C 249.238281 168.445312 249.144531 167.976562 249.144531 167.488281 C 249.144531 166.996094 249.238281 166.527344 249.425781 166.074219 C 249.613281 165.621094 249.878906 165.222656 250.226562 164.875 C 250.570312 164.53125 250.96875 164.265625 251.421875 164.078125 C 251.875 163.890625 252.347656 163.796875 252.835938 163.796875 C 253.324219 163.796875 253.796875 163.890625 254.246094 164.078125 C 254.699219 164.265625 255.097656 164.53125 255.445312 164.878906 C 255.789062 165.222656 256.058594 165.621094 256.246094 166.074219 C 256.433594 166.527344 256.527344 166.996094 256.527344 167.488281 Z M 256.527344 167.488281 "/></g><g style="fill:#20164d;fill-opacity:1;"><g transform="translate(73.942471, 261.341863)"><path style="stroke:none" d="M 13.8125 -41.84375 C 14.25 -41.84375 14.601562 -41.703125 14.875 -41.421875 C 15.15625 -41.148438 15.296875 -40.796875 15.296875 -40.359375 L 15.296875 -1.5 C 15.296875 -1.09375 15.15625 -0.738281 14.875 -0.4375 C 14.601562 -0.144531 14.25 0 13.8125 0 L 4.484375 0 C 4.085938 0 3.738281 -0.144531 3.4375 -0.4375 C 3.132812 -0.738281 2.984375 -1.09375 2.984375 -1.5 L 2.984375 -40.359375 C 2.984375 -40.796875 3.132812 -41.148438 3.4375 -41.421875 C 3.738281 -41.703125 4.085938 -41.84375 4.484375 -41.84375 Z M 13.8125 -41.84375 "/></g></g><g style="fill:#20164d;fill-opacity:1;"><g transform="translate(97.196555, 261.341863)"><path style="stroke:none" d="M 31.859375 -41.84375 C 32.265625 -41.84375 32.601562 -41.703125 32.875 -41.421875 C 33.15625 -41.148438 33.296875 -40.796875 33.296875 -40.359375 L 33.296875 -33.0625 C 33.296875 -32.664062 33.15625 -32.316406 32.875 -32.015625 C 32.601562 -31.710938 32.265625 -31.5625 31.859375 -31.5625 L 15.359375 -31.5625 L 15.359375 -26.0625 L 28.6875 -26.0625 C 29.132812 -26.0625 29.492188 -25.921875 29.765625 -25.640625 C 30.046875 -25.367188 30.1875 -25.007812 30.1875 -24.5625 L 30.1875 -17.28125 C 30.1875 -16.875 30.046875 -16.519531 29.765625 -16.21875 C 29.492188 -15.925781 29.132812 -15.78125 28.6875 -15.78125 L 15.359375 -15.78125 L 15.359375 -1.5 C 15.359375 -1.09375 15.207031 -0.738281 14.90625 -0.4375 C 14.613281 -0.144531 14.269531 0 13.875 0 L 4.484375 0 C 4.085938 0 3.738281 -0.144531 3.4375 -0.4375 C 3.132812 -0.738281 2.984375 -1.09375 2.984375 -1.5 L 2.984375 -40.359375 C 2.984375 -40.796875 3.132812 -41.148438 3.4375 -41.421875 C 3.738281 -41.703125 4.085938 -41.84375 4.484375 -41.84375 Z M 31.859375 -41.84375 "/></g></g><g style="fill:#20164d;fill-opacity:1;"><g transform="translate(138.443611, 261.341863)"><path style="stroke:none" d="M 20.265625 -32.578125 C 22.617188 -32.578125 24.832031 -32.148438 26.90625 -31.296875 C 28.976562 -30.441406 30.8125 -29.253906 32.40625 -27.734375 C 34 -26.222656 35.253906 -24.457031 36.171875 -22.4375 C 37.085938 -20.425781 37.546875 -18.269531 37.546875 -15.96875 C 37.546875 -13.65625 37.085938 -11.488281 36.171875 -9.46875 C 35.253906 -7.457031 34 -5.6875 32.40625 -4.15625 C 30.8125 -2.625 28.976562 -1.425781 26.90625 -0.5625 C 24.832031 0.289062 22.617188 0.71875 20.265625 0.71875 C 17.910156 0.71875 15.695312 0.289062 13.625 -0.5625 C 11.550781 -1.425781 9.71875 -2.625 8.125 -4.15625 C 6.53125 -5.6875 5.273438 -7.457031 4.359375 -9.46875 C 3.441406 -11.488281 2.984375 -13.65625 2.984375 -15.96875 C 2.984375 -18.269531 3.441406 -20.425781 4.359375 -22.4375 C 5.273438 -24.457031 6.53125 -26.222656 8.125 -27.734375 C 9.71875 -29.253906 11.550781 -30.441406 13.625 -31.296875 C 15.695312 -32.148438 17.910156 -32.578125 20.265625 -32.578125 Z M 20.265625 -9.140625 C 22.097656 -9.140625 23.648438 -9.804688 24.921875 -11.140625 C 26.203125 -12.484375 26.84375 -14.09375 26.84375 -15.96875 C 26.84375 -17.832031 26.203125 -19.429688 24.921875 -20.765625 C 23.648438 -22.109375 22.097656 -22.78125 20.265625 -22.78125 C 19.066406 -22.78125 17.976562 -22.46875 17 -21.84375 C 16.03125 -21.226562 15.242188 -20.410156 14.640625 -19.390625 C 14.046875 -18.378906 13.75 -17.238281 13.75 -15.96875 C 13.75 -14.726562 14.046875 -13.585938 14.640625 -12.546875 C 15.242188 -11.515625 16.03125 -10.6875 17 -10.0625 C 17.976562 -9.445312 19.066406 -9.140625 20.265625 -9.140625 Z M 20.265625 -9.140625 "/></g></g><g style="fill:#20164d;fill-opacity:1;"><g transform="translate(183.934857, 261.341863)"><path style="stroke:none" d="M 20.265625 -9.140625 C 21.296875 -9.140625 22.203125 -9.378906 22.984375 -9.859375 C 23.765625 -10.335938 24.453125 -10.976562 25.046875 -11.78125 C 25.242188 -12.0625 25.453125 -12.238281 25.671875 -12.3125 C 25.890625 -12.394531 26.320312 -12.4375 26.96875 -12.4375 L 34.3125 -12.4375 C 35.070312 -12.4375 35.5625 -12.304688 35.78125 -12.046875 C 36 -11.785156 35.988281 -11.238281 35.75 -10.40625 C 35.15625 -8.289062 34.117188 -6.394531 32.640625 -4.71875 C 31.160156 -3.050781 29.363281 -1.726562 27.25 -0.75 C 25.144531 0.226562 22.816406 0.71875 20.265625 0.71875 C 17.910156 0.71875 15.695312 0.289062 13.625 -0.5625 C 11.550781 -1.425781 9.71875 -2.625 8.125 -4.15625 C 6.53125 -5.6875 5.273438 -7.457031 4.359375 -9.46875 C 3.441406 -11.488281 2.984375 -13.65625 2.984375 -15.96875 C 2.984375 -18.269531 3.441406 -20.425781 4.359375 -22.4375 C 5.273438 -24.457031 6.53125 -26.222656 8.125 -27.734375 C 9.71875 -29.253906 11.550781 -30.441406 13.625 -31.296875 C 15.695312 -32.148438 17.910156 -32.578125 20.265625 -32.578125 C 22.734375 -32.578125 25.015625 -32.078125 27.109375 -31.078125 C 29.203125 -30.085938 31.003906 -28.742188 32.515625 -27.046875 C 34.035156 -25.359375 35.132812 -23.457031 35.8125 -21.34375 C 36.09375 -20.539062 36.117188 -19.988281 35.890625 -19.6875 C 35.671875 -19.394531 35.222656 -19.25 34.546875 -19.25 L 26.65625 -19.25 C 26.21875 -19.25 25.898438 -19.304688 25.703125 -19.421875 C 25.503906 -19.546875 25.304688 -19.75 25.109375 -20.03125 C 24.472656 -20.90625 23.773438 -21.582031 23.015625 -22.0625 C 22.253906 -22.539062 21.335938 -22.78125 20.265625 -22.78125 C 18.429688 -22.78125 16.875 -22.109375 15.59375 -20.765625 C 14.320312 -19.429688 13.6875 -17.832031 13.6875 -15.96875 C 13.6875 -14.09375 14.320312 -12.484375 15.59375 -11.140625 C 16.875 -9.804688 18.429688 -9.140625 20.265625 -9.140625 Z M 20.265625 -9.140625 "/></g></g><g style="fill:#20164d;fill-opacity:1;"><g transform="translate(227.931665, 261.341863)"><path style="stroke:none" d="M 33.59375 -31.75 C 34.03125 -31.75 34.390625 -31.609375 34.671875 -31.328125 C 34.953125 -31.046875 35.09375 -30.707031 35.09375 -30.3125 L 35.09375 -1.5 C 35.09375 -1.09375 34.953125 -0.738281 34.671875 -0.4375 C 34.390625 -0.144531 34.03125 0 33.59375 0 L 24.8125 0 C 24.414062 0 24.066406 -0.144531 23.765625 -0.4375 C 23.460938 -0.738281 23.3125 -1.09375 23.3125 -1.5 L 23.3125 -3.109375 C 22.875 -2.515625 22.164062 -1.914062 21.1875 -1.3125 C 20.21875 -0.71875 19.113281 -0.234375 17.875 0.140625 C 16.632812 0.523438 15.421875 0.71875 14.234375 0.71875 C 10.242188 0.71875 7.367188 -0.273438 5.609375 -2.265625 C 3.859375 -4.265625 2.984375 -7.097656 2.984375 -10.765625 L 2.984375 -30.3125 C 2.984375 -30.707031 3.132812 -31.046875 3.4375 -31.328125 C 3.738281 -31.609375 4.085938 -31.75 4.484375 -31.75 L 13.328125 -31.75 C 13.722656 -31.75 14.0625 -31.609375 14.34375 -31.328125 C 14.625 -31.046875 14.765625 -30.707031 14.765625 -30.3125 L 14.765625 -12.859375 C 14.765625 -11.734375 15.015625 -10.863281 15.515625 -10.25 C 16.015625 -9.632812 16.601562 -9.207031 17.28125 -8.96875 C 17.957031 -8.726562 18.550781 -8.609375 19.0625 -8.609375 C 19.625 -8.609375 20.234375 -8.726562 20.890625 -8.96875 C 21.546875 -9.207031 22.113281 -9.632812 22.59375 -10.25 C 23.070312 -10.863281 23.3125 -11.734375 23.3125 -12.859375 L 23.3125 -30.3125 C 23.3125 -30.707031 23.460938 -31.046875 23.765625 -31.328125 C 24.066406 -31.609375 24.414062 -31.75 24.8125 -31.75 Z M 33.59375 -31.75 "/></g></g><g style="fill:#20164d;fill-opacity:1;"><g transform="translate(270.972045, 261.341863)"><path style="stroke:none" d="M 20.09375 -18.71875 C 22.5625 -17.675781 24.390625 -16.226562 25.578125 -14.375 C 26.773438 -12.519531 27.238281 -10.519531 26.96875 -8.375 C 26.84375 -7.289062 26.582031 -6.210938 26.1875 -5.140625 C 25.789062 -4.066406 25.140625 -3.085938 24.234375 -2.203125 C 23.335938 -1.328125 22.050781 -0.617188 20.375 -0.078125 C 18.707031 0.453125 16.519531 0.71875 13.8125 0.71875 C 10.78125 0.71875 8.535156 0.488281 7.078125 0.03125 C 5.628906 -0.425781 4.722656 -0.753906 4.359375 -0.953125 C 4.003906 -1.148438 3.726562 -1.398438 3.53125 -1.703125 C 3.332031 -2.003906 3.269531 -2.53125 3.34375 -3.28125 C 3.425781 -4.125 3.492188 -4.800781 3.546875 -5.3125 C 3.609375 -5.832031 3.679688 -6.332031 3.765625 -6.8125 C 3.847656 -7.488281 4.085938 -8.035156 4.484375 -8.453125 C 4.878906 -8.878906 5.578125 -8.929688 6.578125 -8.609375 C 7.609375 -8.328125 8.539062 -8.125 9.375 -8 C 10.21875 -7.882812 10.957031 -7.828125 11.59375 -7.828125 C 12.3125 -7.785156 13.109375 -7.851562 13.984375 -8.03125 C 14.859375 -8.21875 15.378906 -8.691406 15.546875 -9.453125 C 15.660156 -10.085938 15.179688 -10.703125 14.109375 -11.296875 C 13.035156 -11.898438 11.617188 -12.519531 9.859375 -13.15625 C 8.785156 -13.550781 7.703125 -14.164062 6.609375 -15 C 5.515625 -15.84375 4.617188 -16.96875 3.921875 -18.375 C 3.222656 -19.789062 2.929688 -21.578125 3.046875 -23.734375 C 3.171875 -25.171875 3.628906 -26.566406 4.421875 -27.921875 C 5.222656 -29.273438 6.546875 -30.390625 8.390625 -31.265625 C 10.242188 -32.140625 12.769531 -32.578125 15.96875 -32.578125 C 17.4375 -32.578125 18.914062 -32.457031 20.40625 -32.21875 C 21.90625 -31.976562 22.9375 -31.757812 23.5 -31.5625 C 24.050781 -31.40625 24.492188 -31.132812 24.828125 -30.75 C 25.171875 -30.375 25.304688 -29.789062 25.234375 -29 C 25.191406 -28.320312 25.117188 -27.59375 25.015625 -26.8125 C 24.921875 -26.03125 24.832031 -25.441406 24.75 -25.046875 C 24.664062 -24.523438 24.453125 -24.113281 24.109375 -23.8125 C 23.773438 -23.519531 23.128906 -23.472656 22.171875 -23.671875 C 21.054688 -23.910156 20.171875 -24.066406 19.515625 -24.140625 C 18.859375 -24.222656 18.132812 -24.265625 17.34375 -24.265625 C 16.582031 -24.265625 15.929688 -24.113281 15.390625 -23.8125 C 14.859375 -23.519531 14.59375 -23.09375 14.59375 -22.53125 C 14.59375 -22.09375 14.703125 -21.722656 14.921875 -21.421875 C 15.140625 -21.128906 15.632812 -20.789062 16.40625 -20.40625 C 17.1875 -20.03125 18.414062 -19.46875 20.09375 -18.71875 Z M 20.09375 -18.71875 "/></g></g></g></svg>