<svg xmlns="http://www.w3.org/2000/svg" xmlns:xlink="http://www.w3.org/1999/xlink" width="500" zoomAndPan="magnify" viewBox="0 0 375 74.999997" height="100" preserveAspectRatio="xMidYMid meet" version="1.2"><defs><clipPath id="0047d3b108"><rect x="0" width="234" y="0" height="75"/></clipPath><clipPath id="27b8484e52"><path d="M 24.785156 9.398438 L 85.535156 9.398438 L 85.535156 48 L 24.785156 48 Z M 24.785156 9.398438 "/></clipPath><clipPath id="d60042b7ac"><path d="M 33 41 L 75 41 L 75 65.648438 L 33 65.648438 Z M 33 41 "/></clipPath><clipPath id="ffbed1739a"><path d="M 82 47 L 85.535156 47 L 85.535156 52 L 82 52 Z M 82 47 "/></clipPath></defs><g id="3ce28a4541"><g transform="matrix(1,0,0,1,103,-0.000000000000001887)"><g clip-path="url(#0047d3b108)"><g style="fill:#ffffff;fill-opacity:1;"><g transform="translate(1.399045, 56.654929)"><path style="stroke:none" d="M 13.828125 -41.90625 C 14.265625 -41.90625 14.625 -41.765625 14.90625 -41.484375 C 15.1875 -41.210938 15.328125 -40.859375 15.328125 -40.421875 L 15.328125 -1.5 C 15.328125 -1.09375 15.1875 -0.738281 14.90625 -0.4375 C 14.625 -0.144531 14.265625 0 13.828125 0 L 4.484375 0 C 4.085938 0 3.738281 -0.144531 3.4375 -0.4375 C 3.144531 -0.738281 3 -1.09375 3 -1.5 L 3 -40.421875 C 3 -40.859375 3.144531 -41.210938 3.4375 -41.484375 C 3.738281 -41.765625 4.085938 -41.90625 4.484375 -41.90625 Z M 13.828125 -41.90625 "/></g></g><g style="fill:#ffffff;fill-opacity:1;"><g transform="translate(24.689528, 56.654929)"><path style="stroke:none" d="M 31.90625 -41.90625 C 32.3125 -41.90625 32.648438 -41.765625 32.921875 -41.484375 C 33.203125 -41.210938 33.34375 -40.859375 33.34375 -40.421875 L 33.34375 -33.109375 C 33.34375 -32.710938 33.203125 -32.363281 32.921875 -32.0625 C 32.648438 -31.757812 32.3125 -31.609375 31.90625 -31.609375 L 15.390625 -31.609375 L 15.390625 -26.109375 L 28.734375 -26.109375 C 29.179688 -26.109375 29.539062 -25.96875 29.8125 -25.6875 C 30.09375 -25.40625 30.234375 -25.046875 30.234375 -24.609375 L 30.234375 -17.296875 C 30.234375 -16.898438 30.09375 -16.550781 29.8125 -16.25 C 29.539062 -15.957031 29.179688 -15.8125 28.734375 -15.8125 L 15.390625 -15.8125 L 15.390625 -1.5 C 15.390625 -1.09375 15.238281 -0.738281 14.9375 -0.4375 C 14.632812 -0.144531 14.285156 0 13.890625 0 L 4.484375 0 C 4.085938 0 3.738281 -0.144531 3.4375 -0.4375 C 3.144531 -0.738281 3 -1.09375 3 -1.5 L 3 -40.421875 C 3 -40.859375 3.144531 -41.210938 3.4375 -41.484375 C 3.738281 -41.765625 4.085938 -41.90625 4.484375 -41.90625 Z M 31.90625 -41.90625 "/></g></g><g style="fill:#ffffff;fill-opacity:1;"><g transform="translate(66.001148, 56.654929)"><path style="stroke:none" d="M 20.296875 -32.625 C 22.648438 -32.625 24.863281 -32.195312 26.9375 -31.34375 C 29.019531 -30.488281 30.859375 -29.300781 32.453125 -27.78125 C 34.046875 -26.257812 35.300781 -24.488281 36.21875 -22.46875 C 37.132812 -20.457031 37.59375 -18.296875 37.59375 -15.984375 C 37.59375 -13.671875 37.132812 -11.503906 36.21875 -9.484375 C 35.300781 -7.472656 34.046875 -5.695312 32.453125 -4.15625 C 30.859375 -2.625 29.019531 -1.425781 26.9375 -0.5625 C 24.863281 0.289062 22.648438 0.71875 20.296875 0.71875 C 17.941406 0.71875 15.722656 0.289062 13.640625 -0.5625 C 11.566406 -1.425781 9.734375 -2.625 8.140625 -4.15625 C 6.546875 -5.695312 5.289062 -7.472656 4.375 -9.484375 C 3.457031 -11.503906 3 -13.671875 3 -15.984375 C 3 -18.296875 3.457031 -20.457031 4.375 -22.46875 C 5.289062 -24.488281 6.546875 -26.257812 8.140625 -27.78125 C 9.734375 -29.300781 11.566406 -30.488281 13.640625 -31.34375 C 15.722656 -32.195312 17.941406 -32.625 20.296875 -32.625 Z M 20.296875 -9.15625 C 22.128906 -9.15625 23.6875 -9.820312 24.96875 -11.15625 C 26.25 -12.5 26.890625 -14.109375 26.890625 -15.984375 C 26.890625 -17.859375 26.25 -19.460938 24.96875 -20.796875 C 23.6875 -22.140625 22.128906 -22.8125 20.296875 -22.8125 C 19.097656 -22.8125 18.007812 -22.5 17.03125 -21.875 C 16.050781 -21.257812 15.257812 -20.441406 14.65625 -19.421875 C 14.0625 -18.410156 13.765625 -17.265625 13.765625 -15.984375 C 13.765625 -14.742188 14.0625 -13.601562 14.65625 -12.5625 C 15.257812 -11.53125 16.050781 -10.703125 17.03125 -10.078125 C 18.007812 -9.460938 19.097656 -9.15625 20.296875 -9.15625 Z M 20.296875 -9.15625 "/></g></g><g style="fill:#ffffff;fill-opacity:1;"><g transform="translate(111.563602, 56.654929)"><path style="stroke:none" d="M 20.296875 -9.15625 C 21.335938 -9.15625 22.242188 -9.394531 23.015625 -9.875 C 23.796875 -10.351562 24.488281 -10.992188 25.09375 -11.796875 C 25.289062 -12.078125 25.5 -12.253906 25.71875 -12.328125 C 25.9375 -12.410156 26.363281 -12.453125 27 -12.453125 L 34.375 -12.453125 C 35.125 -12.453125 35.609375 -12.320312 35.828125 -12.0625 C 36.054688 -11.800781 36.050781 -11.253906 35.8125 -10.421875 C 35.207031 -8.304688 34.164062 -6.410156 32.6875 -4.734375 C 31.207031 -3.054688 29.410156 -1.726562 27.296875 -0.75 C 25.179688 0.226562 22.847656 0.71875 20.296875 0.71875 C 17.941406 0.71875 15.722656 0.289062 13.640625 -0.5625 C 11.566406 -1.425781 9.734375 -2.625 8.140625 -4.15625 C 6.546875 -5.695312 5.289062 -7.472656 4.375 -9.484375 C 3.457031 -11.503906 3 -13.671875 3 -15.984375 C 3 -18.296875 3.457031 -20.457031 4.375 -22.46875 C 5.289062 -24.488281 6.546875 -26.257812 8.140625 -27.78125 C 9.734375 -29.300781 11.566406 -30.488281 13.640625 -31.34375 C 15.722656 -32.195312 17.941406 -32.625 20.296875 -32.625 C 22.773438 -32.625 25.0625 -32.125 27.15625 -31.125 C 29.25 -30.132812 31.050781 -28.789062 32.5625 -27.09375 C 34.082031 -25.394531 35.179688 -23.488281 35.859375 -21.375 C 36.140625 -20.570312 36.171875 -20.019531 35.953125 -19.71875 C 35.734375 -19.425781 35.285156 -19.28125 34.609375 -19.28125 L 26.703125 -19.28125 C 26.265625 -19.28125 25.945312 -19.335938 25.75 -19.453125 C 25.550781 -19.578125 25.347656 -19.78125 25.140625 -20.0625 C 24.503906 -20.9375 23.804688 -21.613281 23.046875 -22.09375 C 22.296875 -22.570312 21.378906 -22.8125 20.296875 -22.8125 C 18.460938 -22.8125 16.90625 -22.140625 15.625 -20.796875 C 14.351562 -19.460938 13.71875 -17.859375 13.71875 -15.984375 C 13.71875 -14.109375 14.351562 -12.5 15.625 -11.15625 C 16.90625 -9.820312 18.460938 -9.15625 20.296875 -9.15625 Z M 20.296875 -9.15625 "/></g></g><g style="fill:#ffffff;fill-opacity:1;"><g transform="translate(155.629278, 56.654929)"><path style="stroke:none" d="M 33.65625 -31.796875 C 34.09375 -31.796875 34.445312 -31.65625 34.71875 -31.375 C 35 -31.09375 35.140625 -30.753906 35.140625 -30.359375 L 35.140625 -1.5 C 35.140625 -1.09375 35 -0.738281 34.71875 -0.4375 C 34.445312 -0.144531 34.09375 0 33.65625 0 L 24.84375 0 C 24.445312 0 24.097656 -0.144531 23.796875 -0.4375 C 23.492188 -0.738281 23.34375 -1.09375 23.34375 -1.5 L 23.34375 -3.109375 C 22.90625 -2.515625 22.195312 -1.914062 21.21875 -1.3125 C 20.25 -0.71875 19.144531 -0.234375 17.90625 0.140625 C 16.664062 0.523438 15.445312 0.71875 14.25 0.71875 C 10.257812 0.71875 7.382812 -0.273438 5.625 -2.265625 C 3.875 -4.265625 3 -7.101562 3 -10.78125 L 3 -30.359375 C 3 -30.753906 3.144531 -31.09375 3.4375 -31.375 C 3.738281 -31.65625 4.085938 -31.796875 4.484375 -31.796875 L 13.359375 -31.796875 C 13.753906 -31.796875 14.09375 -31.65625 14.375 -31.375 C 14.65625 -31.09375 14.796875 -30.753906 14.796875 -30.359375 L 14.796875 -12.875 C 14.796875 -11.757812 15.039062 -10.890625 15.53125 -10.265625 C 16.03125 -9.648438 16.617188 -9.222656 17.296875 -8.984375 C 17.984375 -8.742188 18.582031 -8.625 19.09375 -8.625 C 19.65625 -8.625 20.265625 -8.742188 20.921875 -8.984375 C 21.585938 -9.222656 22.15625 -9.648438 22.625 -10.265625 C 23.101562 -10.890625 23.34375 -11.757812 23.34375 -12.875 L 23.34375 -30.359375 C 23.34375 -30.753906 23.492188 -31.09375 23.796875 -31.375 C 24.097656 -31.65625 24.445312 -31.796875 24.84375 -31.796875 Z M 33.65625 -31.796875 "/></g></g><g style="fill:#ffffff;fill-opacity:1;"><g transform="translate(198.737029, 56.654929)"><path style="stroke:none" d="M 20.125 -18.734375 C 22.59375 -17.703125 24.425781 -16.253906 25.625 -14.390625 C 26.820312 -12.535156 27.28125 -10.53125 27 -8.375 C 26.882812 -7.300781 26.625 -6.222656 26.21875 -5.140625 C 25.820312 -4.066406 25.175781 -3.085938 24.28125 -2.203125 C 23.382812 -1.328125 22.097656 -0.617188 20.421875 -0.078125 C 18.742188 0.453125 16.546875 0.71875 13.828125 0.71875 C 10.796875 0.71875 8.550781 0.488281 7.09375 0.03125 C 5.632812 -0.425781 4.726562 -0.753906 4.375 -0.953125 C 4.007812 -1.148438 3.726562 -1.398438 3.53125 -1.703125 C 3.332031 -2.003906 3.273438 -2.535156 3.359375 -3.296875 C 3.429688 -4.128906 3.5 -4.804688 3.5625 -5.328125 C 3.625 -5.847656 3.691406 -6.347656 3.765625 -6.828125 C 3.847656 -7.503906 4.085938 -8.050781 4.484375 -8.46875 C 4.890625 -8.882812 5.59375 -8.9375 6.59375 -8.625 C 7.625 -8.34375 8.554688 -8.140625 9.390625 -8.015625 C 10.234375 -7.898438 10.972656 -7.84375 11.609375 -7.84375 C 12.328125 -7.800781 13.125 -7.867188 14 -8.046875 C 14.882812 -8.234375 15.40625 -8.703125 15.5625 -9.453125 C 15.6875 -10.097656 15.207031 -10.71875 14.125 -11.3125 C 13.050781 -11.914062 11.632812 -12.535156 9.875 -13.171875 C 8.800781 -13.566406 7.710938 -14.179688 6.609375 -15.015625 C 5.515625 -15.859375 4.617188 -16.988281 3.921875 -18.40625 C 3.222656 -19.820312 2.929688 -21.609375 3.046875 -23.765625 C 3.171875 -25.203125 3.628906 -26.597656 4.421875 -27.953125 C 5.222656 -29.316406 6.550781 -30.4375 8.40625 -31.3125 C 10.269531 -32.1875 12.796875 -32.625 15.984375 -32.625 C 17.460938 -32.625 18.945312 -32.503906 20.4375 -32.265625 C 21.9375 -32.023438 22.96875 -31.804688 23.53125 -31.609375 C 24.09375 -31.453125 24.539062 -31.179688 24.875 -30.796875 C 25.21875 -30.421875 25.347656 -29.835938 25.265625 -29.046875 C 25.222656 -28.359375 25.148438 -27.625 25.046875 -26.84375 C 24.953125 -26.070312 24.863281 -25.488281 24.78125 -25.09375 C 24.707031 -24.570312 24.5 -24.160156 24.15625 -23.859375 C 23.820312 -23.554688 23.175781 -23.503906 22.21875 -23.703125 C 21.09375 -23.941406 20.203125 -24.101562 19.546875 -24.1875 C 18.890625 -24.269531 18.160156 -24.3125 17.359375 -24.3125 C 16.597656 -24.3125 15.945312 -24.160156 15.40625 -23.859375 C 14.875 -23.554688 14.609375 -23.128906 14.609375 -22.578125 C 14.609375 -22.140625 14.71875 -21.769531 14.9375 -21.46875 C 15.15625 -21.164062 15.65625 -20.820312 16.4375 -20.4375 C 17.21875 -20.0625 18.445312 -19.492188 20.125 -18.734375 Z M 20.125 -18.734375 "/></g></g></g></g><g clip-rule="nonzero" clip-path="url(#27b8484e52)"><path style=" stroke:none;fill-rule:nonzero;fill:#ffffff;fill-opacity:1;" d="M 54.390625 47.703125 C 53.753906 47.703125 53.164062 47.539062 52.621094 47.210938 L 26.550781 31.570312 C 26.019531 31.253906 25.601562 30.824219 25.304688 30.28125 C 25.003906 29.734375 24.863281 29.152344 24.882812 28.535156 C 24.910156 27.921875 25.085938 27.355469 25.402344 26.835938 C 25.722656 26.3125 26.144531 25.898438 26.675781 25.59375 L 52.621094 10.027344 C 53.164062 9.699219 53.753906 9.535156 54.390625 9.535156 C 55.027344 9.535156 55.617188 9.699219 56.160156 10.027344 L 84.042969 26.753906 C 84.558594 27.066406 84.964844 27.484375 85.261719 28.011719 C 85.5625 28.539062 85.710938 29.101562 85.710938 29.707031 L 85.710938 44.074219 C 85.710938 44.277344 85.671875 44.472656 85.597656 44.65625 C 85.519531 44.84375 85.410156 45.007812 85.265625 45.152344 C 85.125 45.292969 84.960938 45.402344 84.773438 45.480469 C 84.585938 45.558594 84.394531 45.597656 84.191406 45.597656 C 83.988281 45.597656 83.796875 45.558594 83.609375 45.480469 C 83.421875 45.402344 83.257812 45.292969 83.117188 45.152344 C 82.972656 45.007812 82.863281 44.84375 82.785156 44.65625 C 82.707031 44.472656 82.671875 44.277344 82.671875 44.074219 L 82.671875 29.707031 C 82.667969 29.554688 82.605469 29.441406 82.476562 29.363281 L 54.597656 12.636719 C 54.460938 12.554688 54.320312 12.554688 54.183594 12.636719 L 28.117188 28.277344 C 28.058594 28.3125 28.011719 28.359375 27.976562 28.421875 C 27.941406 28.484375 27.925781 28.550781 27.925781 28.617188 C 27.925781 28.6875 27.941406 28.753906 27.976562 28.816406 C 28.011719 28.878906 28.058594 28.925781 28.117188 28.960938 L 54.183594 44.601562 C 54.320312 44.683594 54.460938 44.683594 54.597656 44.601562 L 76.542969 31.394531 C 76.714844 31.292969 76.902344 31.226562 77.101562 31.195312 C 77.300781 31.164062 77.5 31.175781 77.695312 31.222656 C 77.890625 31.273438 78.070312 31.359375 78.230469 31.476562 C 78.394531 31.597656 78.527344 31.746094 78.628906 31.917969 C 78.734375 32.089844 78.800781 32.277344 78.828125 32.476562 C 78.859375 32.675781 78.851562 32.875 78.800781 33.070312 C 78.75 33.265625 78.667969 33.445312 78.546875 33.605469 C 78.425781 33.769531 78.28125 33.902344 78.109375 34.003906 L 56.160156 47.210938 C 55.617188 47.539062 55.027344 47.703125 54.390625 47.703125 Z M 54.390625 47.703125 "/></g><g clip-rule="nonzero" clip-path="url(#d60042b7ac)"><path style=" stroke:none;fill-rule:nonzero;fill:#ffffff;fill-opacity:1;" d="M 54.390625 65.574219 C 53.046875 65.574219 51.796875 65.230469 50.644531 64.535156 L 37.4375 56.605469 C 36.898438 56.28125 36.410156 55.894531 35.972656 55.445312 C 35.535156 54.992188 35.164062 54.496094 34.855469 53.949219 C 34.546875 53.402344 34.308594 52.828125 34.148438 52.21875 C 33.988281 51.613281 33.90625 50.996094 33.90625 50.367188 L 33.90625 43.226562 C 33.90625 43.023438 33.945312 42.832031 34.019531 42.644531 C 34.097656 42.457031 34.207031 42.292969 34.351562 42.152344 C 34.492188 42.007812 34.660156 41.898438 34.84375 41.820312 C 35.03125 41.742188 35.226562 41.703125 35.425781 41.703125 C 35.628906 41.703125 35.824219 41.742188 36.007812 41.820312 C 36.195312 41.898438 36.359375 42.007812 36.503906 42.152344 C 36.644531 42.292969 36.753906 42.457031 36.832031 42.644531 C 36.910156 42.832031 36.949219 43.023438 36.949219 43.226562 L 36.949219 50.367188 C 36.949219 51.109375 37.132812 51.804688 37.496094 52.453125 C 37.863281 53.101562 38.363281 53.613281 39.003906 53.996094 L 52.210938 61.925781 C 52.882812 62.328125 53.609375 62.53125 54.390625 62.53125 C 55.171875 62.53125 55.898438 62.328125 56.566406 61.925781 L 69.78125 53.996094 C 70.417969 53.613281 70.917969 53.101562 71.285156 52.453125 C 71.648438 51.808594 71.832031 51.113281 71.832031 50.367188 L 71.832031 43.226562 C 71.832031 43.023438 71.871094 42.832031 71.949219 42.644531 C 72.027344 42.457031 72.136719 42.292969 72.277344 42.152344 C 72.421875 42.007812 72.585938 41.898438 72.773438 41.820312 C 72.957031 41.742188 73.152344 41.703125 73.355469 41.703125 C 73.554688 41.703125 73.75 41.742188 73.9375 41.820312 C 74.121094 41.898438 74.289062 42.007812 74.429688 42.152344 C 74.574219 42.292969 74.683594 42.457031 74.761719 42.644531 C 74.835938 42.832031 74.875 43.023438 74.875 43.226562 L 74.875 50.367188 C 74.875 50.996094 74.792969 51.613281 74.632812 52.21875 C 74.472656 52.828125 74.238281 53.402344 73.925781 53.949219 C 73.617188 54.496094 73.246094 54.992188 72.808594 55.445312 C 72.371094 55.894531 71.882812 56.28125 71.347656 56.605469 L 58.136719 64.535156 C 56.984375 65.230469 55.734375 65.574219 54.390625 65.574219 Z M 54.390625 65.574219 "/></g><g clip-rule="nonzero" clip-path="url(#ffbed1739a)"><path style=" stroke:none;fill-rule:nonzero;fill:#ffffff;fill-opacity:1;" d="M 85.828125 49.382812 C 85.828125 49.597656 85.785156 49.808594 85.703125 50.007812 C 85.621094 50.207031 85.503906 50.382812 85.347656 50.535156 C 85.195312 50.6875 85.019531 50.808594 84.820312 50.890625 C 84.621094 50.972656 84.414062 51.015625 84.195312 51.015625 C 83.980469 51.015625 83.773438 50.972656 83.570312 50.890625 C 83.371094 50.808594 83.195312 50.6875 83.042969 50.535156 C 82.890625 50.382812 82.773438 50.207031 82.6875 50.007812 C 82.605469 49.808594 82.566406 49.597656 82.566406 49.382812 C 82.566406 49.167969 82.605469 48.957031 82.6875 48.757812 C 82.773438 48.558594 82.890625 48.382812 83.042969 48.230469 C 83.195312 48.078125 83.371094 47.960938 83.570312 47.875 C 83.773438 47.792969 83.980469 47.753906 84.195312 47.753906 C 84.414062 47.753906 84.621094 47.792969 84.820312 47.875 C 85.019531 47.960938 85.195312 48.078125 85.347656 48.230469 C 85.503906 48.382812 85.621094 48.558594 85.703125 48.757812 C 85.785156 48.957031 85.828125 49.167969 85.828125 49.382812 Z M 85.828125 49.382812 "/></g></g></svg>